<?xml version="1.0" encoding="utf-8"?>
<!-- Generator: Adobe Illustrator 21.0.0, SVG Export Plug-In . SVG Version: 6.00 Build 0)  -->
<svg version="1.1" id="Layer_1" xmlns="http://www.w3.org/2000/svg" xmlns:xlink="http://www.w3.org/1999/xlink" x="0px" y="0px"
	 viewBox="0 0 469 76" style="enable-background:new 0 0 469 76;" xml:space="preserve">
<style type="text/css">
	.st0{fill:#FFFFFF;}
	.st1{fill:#93C73F;}
</style>
<g>
	<path class="st0" d="M55.5,52c-1.1,0-2.2,0.5-3,1.3c-4.9,4.5-9.6,6.4-15.6,6.4c-5.5,0-10.6-2.2-14.4-6.2c-3.8-4-5.8-9.5-5.8-15.4
		v-0.2c0-12.3,8.7-21.5,20.2-21.5c5.8,0,10.4,1.9,15.1,6l0.2,0.1c1,0.6,1.9,1,2.9,1c2.5,0,4.6-2.1,4.6-4.5c0-1.3-0.6-2.6-1.8-3.6
		l0,0C53.4,11.5,47.4,7.7,37,7.7c-8.2,0-15.8,3.2-21.3,9c-5.4,5.7-8.4,13.2-8.4,21.4v0.2c0,8.2,3,15.8,8.4,21.4
		c5.5,5.7,13,8.8,21.1,8.8c8.6,0,15.1-2.6,21.7-8.6c1-0.8,1.5-2.1,1.5-3.3C60,54.1,57.9,52,55.5,52z"/>
	<path class="st0" d="M97.6,7.7c-8.4,0-16.1,3.2-21.7,9.1c-5.4,5.7-8.3,13.2-8.3,21.2v0.2c0,8,2.9,15.5,8.2,21.1
		c5.5,5.8,13.2,9,21.6,9c8.4,0,16.1-3.2,21.7-9.1c5.4-5.7,8.3-13.2,8.3-21.2v-0.2c0-8-2.9-15.5-8.2-21.1
		C113.7,10.9,106,7.7,97.6,7.7z M118.1,38.1v0.2c0,12.3-8.8,21.5-20.5,21.5c-5.7,0-11-2.2-14.8-6.3c-3.8-4-5.8-9.5-5.8-15.3v-0.2
		c0-12.3,8.8-21.5,20.5-21.5c5.7,0,11,2.2,14.8,6.3C116,26.8,118.1,32.2,118.1,38.1z"/>
	<path class="st0" d="M181.4,8.3c-2.6,0-4.6,2.1-4.6,4.6v20.6h-29.4V12.9c0-2.6-2.1-4.6-4.6-4.6c-2.5,0-4.5,2.1-4.5,4.6v50.3
		c0,2.6,2,4.6,4.5,4.6c2.6,0,4.6-2.1,4.6-4.6V42.3h29.4v20.9c0,2.6,2.1,4.6,4.6,4.6c2.5,0,4.5-2.1,4.5-4.6V12.9
		C186,10.4,183.9,8.3,181.4,8.3z"/>
	<path class="st0" d="M238.4,58.8h-30.5V42.1h26.5c2.4,0,4.3-1.9,4.3-4.3c0-2.3-2-4.3-4.3-4.3h-26.5V17.3H238c2.4,0,4.3-1.9,4.3-4.3
		c0-2.4-1.9-4.3-4.3-4.3h-34.8c-2.5,0-4.5,2.1-4.5,4.6v49.5c0,2.6,2,4.6,4.5,4.6h35.2c2.4,0,4.3-1.9,4.3-4.3
		C242.7,60.8,240.8,58.8,238.4,58.8z"/>
	<path class="st0" d="M320.7,8.3c-2.5,0-4.5,2.1-4.5,4.6v50.3c0,2.6,2,4.6,4.5,4.6c2.6,0,4.6-2.1,4.6-4.6V12.9
		C325.3,10.3,323.2,8.3,320.7,8.3z"/>
	<path class="st0" d="M377.5,8.7h-38.8c-2.4,0-4.4,2-4.4,4.4c0,2.4,2,4.3,4.4,4.3h14.8v45.9c0,2.6,2.1,4.6,4.6,4.6
		c2.5,0,4.6-2.1,4.6-4.6V17.4h14.8c2.4,0,4.4-1.9,4.4-4.3C381.9,10.7,379.8,8.7,377.5,8.7z"/>
	<path class="st0" d="M437.2,8.3c-2,0-3.2,1.3-4.1,2.5l-17.4,24.9l-17.3-24.9c-0.8-1.2-2.1-2.5-4.2-2.5c-2.6,0-4.7,2.1-4.7,4.5
		c0,1,0.3,1.9,0.9,2.9l20.6,28.8v18.7c0,2.5,2.1,4.6,4.6,4.6c2.6,0,4.6-2.1,4.6-4.6V44.3L440.6,16l0.1-0.1c0.5-0.8,1.1-1.9,1.1-3.1
		C441.8,10.3,439.7,8.3,437.2,8.3z"/>
	<g>
		<path class="st1" d="M284.1,25.3h-13.2c-2.4,0-4.4,2-4.4,4.4c0,2.4,2,4.4,4.4,4.4h13.2c6.8,0,12.3,5.5,12.3,12.3
			c0,6.8-5.5,12.3-12.3,12.3h-26.3c-2.4,0-4.4,2-4.4,4.4c0,2.4,2,4.4,4.4,4.4h26.3c11.6,0,21.1-9.5,21.1-21.1S295.7,25.3,284.1,25.3
			z"/>
		<path class="st1" d="M270.6,50.9h13.3c2.4,0,4.4-2,4.4-4.4c0-2.4-2-4.4-4.4-4.4h-13.3c-6.8,0-12.3-5.5-12.3-12.3
			c0-6.8,5.5-12.3,12.3-12.3h25.5c2.4,0,4.4-2,4.4-4.4c0-2.4-2-4.4-4.4-4.4h-25.5c-11.6,0-21.1,9.5-21.1,21.1S259,50.9,270.6,50.9z"
			/>
	</g>
</g>
</svg>
